<svg width="50" height="50" viewBox="0 0 50 50" fill="none" xmlns="http://www.w3.org/2000/svg">
<path d="M25 18.7463C21.543 18.7463 18.75 21.5388 18.75 24.9951C18.75 28.4515 21.543 31.2439 25 31.2439C28.457 31.2439 31.25 28.4515 31.25 24.9951C31.25 21.5388 28.457 18.7463 25 18.7463ZM25 14.5772C27.2949 14.5772 29.1699 12.7124 29.1699 10.4081V4.15934C29.1699 1.86487 27.2949 0 25 0C22.7051 0 20.8301 1.86487 20.8301 4.16911V10.4179C20.8301 12.7124 22.7051 14.5772 25 14.5772ZM25 35.413C22.7051 35.413 20.8301 37.2779 20.8301 39.5821V45.8309C20.8301 48.1254 22.6953 50 25 50C27.2949 50 29.1699 48.1351 29.1699 45.8309V39.5821C29.1699 37.2779 27.2949 35.413 25 35.413ZM45.8301 20.826H39.5801C37.2852 20.826 35.4102 22.6909 35.4102 24.9951C35.4102 27.2896 37.2754 29.1642 39.5801 29.1642H45.8301C48.125 29.1642 50 27.2994 50 24.9951C50 22.7006 48.1348 20.826 45.8301 20.826ZM14.5801 24.9951C14.5801 22.7006 12.7148 20.826 10.4102 20.826H4.16016C1.86523 20.826 0 22.7006 0 24.9951C0 27.2896 1.86523 29.1642 4.16992 29.1642H10.4199C12.7148 29.1642 14.5801 27.2896 14.5801 24.9951ZM38.2617 32.357C36.6309 30.7362 33.9941 30.7362 32.3633 32.357C30.7422 33.9875 30.7422 36.6237 32.3633 38.2542L36.7871 42.6772C38.4082 44.298 41.0547 44.298 42.6758 42.6772C44.2969 41.0467 44.2969 38.4105 42.6758 36.7897L38.2617 32.357ZM11.7383 17.6333C13.3691 19.2541 16.0059 19.2541 17.6367 17.6333C19.2578 16.0027 19.2578 13.3665 17.6367 11.736L13.2129 7.32279C11.5918 5.69225 8.94531 5.69225 7.32422 7.32279C5.70312 8.95333 5.70312 11.5895 7.32422 13.2103L11.7383 17.6333ZM38.2617 17.6333L42.6855 13.2103C44.3066 11.5895 44.3066 8.94357 42.6855 7.32279C41.0547 5.70201 38.418 5.70201 36.7969 7.32279L32.373 11.7458C30.752 13.3763 30.752 16.0125 32.373 17.643C33.9941 19.2541 36.6309 19.2541 38.2617 17.6333ZM11.7383 32.357L7.32422 36.7799C5.70312 38.4007 5.70312 41.0467 7.32422 42.6674C8.95508 44.2882 11.5918 44.2882 13.2129 42.6674L17.6367 38.2445C19.2578 36.6139 19.2578 33.9777 17.6367 32.3472C16.0059 30.7362 13.3691 30.7362 11.7383 32.357Z" fill="#16C0FD"/>
</svg>
